<mxfile host="app.diagrams.net" modified="2021-06-18T20:37:17.692Z" agent="5.0 (Windows)" etag="E3mYButSKSI65bB34w-b" version="14.8.0" type="github">
  <diagram id="uy80SnhSiXS80WXVaiHM" name="Page-1">
    <mxGraphModel dx="2062" dy="1139" grid="1" gridSize="10" guides="1" tooltips="1" connect="1" arrows="1" fold="1" page="1" pageScale="1" pageWidth="800" pageHeight="600" math="0" shadow="0">
      <root>
        <mxCell id="0" />
        <mxCell id="1" parent="0" />
      </root>
    </mxGraphModel>
  </diagram>
</mxfile>
